<svg width="56" height="60" viewBox="0 0 56 60" fill="none" xmlns="http://www.w3.org/2000/svg">
<path d="M45.3071 17.6992C43.839 16.6966 42.1829 16.1953 40.3389 16.1953C38.5127 16.1953 37.0177 16.6787 35.854 17.6455C34.6903 18.5944 34.1084 19.9372 34.1084 21.6738C34.1084 23.3926 34.9767 24.9144 36.7134 26.2393C37.7518 27.0449 39.8734 28.137 43.0781 29.5156C46.2829 30.8942 48.5119 32.1654 49.7651 33.3291C52.1642 35.5492 53.3638 37.8587 53.3638 40.2578V41.2246C53.3638 44.1966 52.1821 46.6136 49.8188 48.4756C48.7267 49.335 47.366 50.0243 45.7368 50.5435C44.1076 51.0448 42.4784 51.2954 40.8491 51.2954H39.8555C36.1673 51.2954 32.9357 50.7404 30.1606 49.6304C28.9074 49.1291 28.2808 47.7594 28.2808 45.5215V44.5815C28.2808 41.9318 28.7373 40.6069 29.6504 40.6069C30.277 40.6069 31.1274 41.4574 32.2017 43.1582C33.2759 44.859 34.5112 46.1392 35.9077 46.9985C37.3221 47.8579 39.0229 48.2876 41.0103 48.2876C42.9976 48.2876 44.5999 47.7684 45.8174 46.73C47.0348 45.6737 47.6436 44.3757 47.6436 42.8359C47.6436 40.7233 46.6589 38.9419 44.6895 37.4917C43.848 36.883 41.7354 35.7998 38.3516 34.2422C34.9678 32.6667 32.6224 31.1986 31.3154 29.8379C29.5251 27.9759 28.6299 25.7021 28.6299 23.0166C28.6299 20.3311 29.5877 18.1021 31.5034 16.3296C32.5597 15.3449 33.8757 14.584 35.4512 14.0469C37.0267 13.4919 38.638 13.2144 40.2852 13.2144H41.2788C41.9591 13.2144 42.9259 13.3307 44.1792 13.5635L45.1191 13.7515C46.2292 13.9663 46.8289 14.0827 46.9185 14.1006L47.751 14.1543L48.5566 14.1812C49.3086 14.2349 49.8368 14.3244 50.1411 14.4497C51.1974 14.8794 51.7256 16.3743 51.7256 18.9346C51.7256 21.4948 51.2243 22.7749 50.2217 22.7749C49.7204 22.7749 48.9684 22.0588 47.9658 20.6265C46.9632 19.1942 46.077 18.2184 45.3071 17.6992Z" fill="#DFD260"/>
<path d="M20.3071 11.6992C18.839 10.6966 17.1829 10.1953 15.3389 10.1953C13.5127 10.1953 12.0177 10.6787 10.854 11.6455C9.69027 12.5944 9.1084 13.9372 9.1084 15.6738C9.1084 17.3926 9.97673 18.9144 11.7134 20.2393C12.7518 21.0449 14.8734 22.137 18.0781 23.5156C21.2829 24.8942 23.5119 26.1654 24.7651 27.3291C27.1642 29.5492 28.3638 31.8587 28.3638 34.2578V35.2246C28.3638 38.1966 27.1821 40.6136 24.8188 42.4756C23.7267 43.335 22.366 44.0243 20.7368 44.5435C19.1076 45.0448 17.4784 45.2954 15.8491 45.2954H14.8555C11.1673 45.2954 7.93571 44.7404 5.16064 43.6304C3.90739 43.1291 3.28076 41.7594 3.28076 39.5215V38.5815C3.28076 35.9318 3.7373 34.6069 4.65039 34.6069C5.27702 34.6069 6.12744 35.4574 7.20166 37.1582C8.27588 38.859 9.51123 40.1392 10.9077 40.9985C12.3221 41.8579 14.0229 42.2876 16.0103 42.2876C17.9976 42.2876 19.5999 41.7684 20.8174 40.73C22.0348 39.6737 22.6436 38.3757 22.6436 36.8359C22.6436 34.7233 21.6589 32.9419 19.6895 31.4917C18.848 30.883 16.7354 29.7998 13.3516 28.2422C9.96777 26.6667 7.6224 25.1986 6.31543 23.8379C4.52507 21.9759 3.62988 19.7021 3.62988 17.0166C3.62988 14.3311 4.58773 12.1021 6.50342 10.3296C7.55973 9.34489 8.87565 8.58398 10.4512 8.04688C12.0267 7.49186 13.638 7.21436 15.2852 7.21436H16.2788C16.9591 7.21436 17.9259 7.33073 19.1792 7.56348L20.1191 7.75146C21.2292 7.96631 21.8289 8.08268 21.9185 8.10059L22.751 8.1543L23.5566 8.18115C24.3086 8.23486 24.8368 8.32438 25.1411 8.44971C26.1974 8.87939 26.7256 10.3743 26.7256 12.9346C26.7256 15.4948 26.2243 16.7749 25.2217 16.7749C24.7204 16.7749 23.9684 16.0588 22.9658 14.6265C21.9632 13.1942 21.077 12.2184 20.3071 11.6992Z" fill="#DFD260"/>
</svg>
