<svg width="56" height="61" viewBox="0 0 56 61" fill="none" xmlns="http://www.w3.org/2000/svg">
<path d="M45.3071 19.4663C43.839 18.4637 42.1829 17.9624 40.3389 17.9624C38.5127 17.9624 37.0177 18.4458 35.854 19.4126C34.6903 20.3615 34.1084 21.7043 34.1084 23.4409C34.1084 25.1597 34.9767 26.6815 36.7134 28.0064C37.7518 28.812 39.8734 29.9042 43.0781 31.2827C46.2829 32.6613 48.5119 33.9325 49.7651 35.0962C52.1642 37.3163 53.3638 39.6258 53.3638 42.0249V42.9917C53.3638 45.9637 52.1821 48.3807 49.8188 50.2427C48.7267 51.1021 47.366 51.7914 45.7368 52.3106C44.1076 52.8119 42.4784 53.0625 40.8491 53.0625H39.8555C36.1673 53.0625 32.9357 52.5075 30.1606 51.3975C28.9074 50.8962 28.2808 49.5266 28.2808 47.2886V46.3487C28.2808 43.6989 28.7373 42.3741 29.6504 42.3741C30.277 42.3741 31.1274 43.2245 32.2017 44.9253C33.2759 46.6262 34.5112 47.9063 35.9077 48.7657C37.3221 49.625 39.0229 50.0547 41.0103 50.0547C42.9976 50.0547 44.5999 49.5355 45.8174 48.4971C47.0348 47.4408 47.6436 46.1428 47.6436 44.6031C47.6436 42.4904 46.6589 40.709 44.6895 39.2588C43.848 38.6501 41.7354 37.5669 38.3516 36.0093C34.9678 34.4338 32.6224 32.9657 31.3154 31.605C29.5251 29.743 28.6299 27.4693 28.6299 24.7837C28.6299 22.0982 29.5877 19.8692 31.5034 18.0967C32.5597 17.112 33.8757 16.3511 35.4512 15.814C37.0267 15.259 38.638 14.9815 40.2852 14.9815H41.2788C41.9591 14.9815 42.9259 15.0978 44.1792 15.3306L45.1191 15.5186C46.2292 15.7334 46.8289 15.8498 46.9185 15.8677L47.751 15.9214L48.5566 15.9483C49.3086 16.002 49.8368 16.0915 50.1411 16.2168C51.1974 16.6465 51.7256 18.1415 51.7256 20.7017C51.7256 23.2619 51.2243 24.542 50.2217 24.542C49.7204 24.542 48.9684 23.8259 47.9658 22.3936C46.9632 20.9613 46.077 19.9855 45.3071 19.4663Z" fill="#DFD260"/>
<path d="M20.3071 11.6992C18.839 10.6966 17.1829 10.1953 15.3389 10.1953C13.5127 10.1953 12.0177 10.6787 10.854 11.6455C9.69027 12.5944 9.1084 13.9372 9.1084 15.6738C9.1084 17.3926 9.97673 18.9144 11.7134 20.2393C12.7518 21.0449 14.8734 22.137 18.0781 23.5156C21.2829 24.8942 23.5119 26.1654 24.7651 27.3291C27.1642 29.5492 28.3638 31.8587 28.3638 34.2578V35.2246C28.3638 38.1966 27.1821 40.6136 24.8188 42.4756C23.7267 43.335 22.366 44.0243 20.7368 44.5435C19.1076 45.0448 17.4784 45.2954 15.8491 45.2954H14.8555C11.1673 45.2954 7.93571 44.7404 5.16064 43.6304C3.90739 43.1291 3.28076 41.7594 3.28076 39.5215V38.5815C3.28076 35.9318 3.7373 34.6069 4.65039 34.6069C5.27702 34.6069 6.12744 35.4574 7.20166 37.1582C8.27588 38.859 9.51123 40.1392 10.9077 40.9985C12.3221 41.8579 14.0229 42.2876 16.0103 42.2876C17.9976 42.2876 19.5999 41.7684 20.8174 40.73C22.0348 39.6737 22.6436 38.3757 22.6436 36.8359C22.6436 34.7233 21.6589 32.9419 19.6895 31.4917C18.848 30.883 16.7354 29.7998 13.3516 28.2422C9.96777 26.6667 7.6224 25.1986 6.31543 23.8379C4.52507 21.9759 3.62988 19.7021 3.62988 17.0166C3.62988 14.3311 4.58773 12.1021 6.50342 10.3296C7.55973 9.34489 8.87565 8.58398 10.4512 8.04688C12.0267 7.49186 13.638 7.21436 15.2852 7.21436H16.2788C16.9591 7.21436 17.9259 7.33073 19.1792 7.56348L20.1191 7.75146C21.2292 7.96631 21.8289 8.08268 21.9185 8.10059L22.751 8.1543L23.5566 8.18115C24.3086 8.23486 24.8368 8.32438 25.1411 8.44971C26.1974 8.87939 26.7256 10.3743 26.7256 12.9346C26.7256 15.4948 26.2243 16.7749 25.2217 16.7749C24.7204 16.7749 23.9684 16.0588 22.9658 14.6265C21.9632 13.1942 21.077 12.2184 20.3071 11.6992Z" fill="#DFD260"/>
</svg>
